HIERARCHY
ROOT Hips
{
	OFFSET 0.000000 100.481300 0.000000
	CHANNELS 6 Xposition Yposition Zposition Xrotation Yrotation Zrotation
	JOINT Spine
	{
		OFFSET -0.279200 12.230698 -2.892100
		CHANNELS 3 Xrotation Yrotation Zrotation
		JOINT Spine1
		{
			OFFSET -0.325700 14.269203 -3.374200
			CHANNELS 3 Xrotation Yrotation Zrotation
			JOINT Spine2
			{
				OFFSET -0.372300 16.307602 -0.352600
				CHANNELS 3 Xrotation Yrotation Zrotation
				JOINT Neck
				{
					OFFSET -0.418800 17.814194 8.416900
					CHANNELS 3 Xrotation Yrotation Zrotation
					JOINT Head
					{
						OFFSET 0.000000 7.031097 3.806800
						CHANNELS 3 Xrotation Yrotation Zrotation
						JOINT HeadTop_End
						{
							OFFSET 0.000000 24.646606 12.978600
							CHANNELS 3 Xrotation Yrotation Zrotation
							End Site
							{
								OFFSET 0.000000 27.854965 0.000000
							}
						}
					}
				}
				JOINT LeftShoulder
				{
					OFFSET 16.952999 14.495407 -7.737500
					CHANNELS 3 Xrotation Yrotation Zrotation
					JOINT LeftArm
					{
						OFFSET 9.308998 -2.777710 0.208600
						CHANNELS 3 Xrotation Yrotation Zrotation
						JOINT LeftForeArm
						{
							OFFSET 29.972298 0.000000 0.000000
							CHANNELS 3 Xrotation Yrotation Zrotation
							JOINT LeftHand
							{
								OFFSET 26.026505 0.000000 0.000000
								CHANNELS 3 Xrotation Yrotation Zrotation
								JOINT LeftHandThumb1
								{
									OFFSET 12.240501 -7.147949 9.207150
									CHANNELS 3 Xrotation Yrotation Zrotation
									JOINT LeftHandThumb2
									{
										OFFSET 4.138618 -2.389435 2.389433
										CHANNELS 3 Xrotation Yrotation Zrotation
										JOINT LeftHandThumb3
										{
											OFFSET 2.726913 -1.574387 1.574386
											CHANNELS 3 Xrotation Yrotation Zrotation
											JOINT LeftHandThumb4
											{
												OFFSET 3.941010 -2.275345 2.275342
												CHANNELS 3 Xrotation Yrotation Zrotation
												End Site
												{
													OFFSET -0.005798 5.087799 0.009903
												}
											}
										}
									}
								}
								JOINT LeftHandIndex1
								{
									OFFSET 24.424698 -1.985611 5.953459
									CHANNELS 3 Xrotation Yrotation Zrotation
									JOINT LeftHandIndex2
									{
										OFFSET 6.426697 0.000000 0.000000
										CHANNELS 3 Xrotation Yrotation Zrotation
										JOINT LeftHandIndex3
										{
											OFFSET 5.337898 0.000000 0.000000
											CHANNELS 3 Xrotation Yrotation Zrotation
											JOINT LeftHandIndex4
											{
												OFFSET 4.409401 0.000000 0.000000
												CHANNELS 3 Xrotation Yrotation Zrotation
												End Site
												{
													OFFSET 0.000000 4.409363 0.014373
												}
											}
										}
									}
								}
								JOINT LeftHandMiddle1
								{
									OFFSET 23.810104 0.000000 0.000000
									CHANNELS 3 Xrotation Yrotation Zrotation
									JOINT LeftHandMiddle2
									{
										OFFSET 7.176498 0.000000 0.000000
										CHANNELS 3 Xrotation Yrotation Zrotation
										JOINT LeftHandMiddle3
										{
											OFFSET 6.774902 0.000000 0.000000
											CHANNELS 3 Xrotation Yrotation Zrotation
											JOINT LeftHandMiddle4
											{
												OFFSET 5.403328 0.000000 0.000000
												CHANNELS 3 Xrotation Yrotation Zrotation
												End Site
												{
													OFFSET -0.027702 5.403244 0.017414
												}
											}
										}
									}
								}
								JOINT LeftHandRing1
								{
									OFFSET 22.908401 -0.839279 -6.020567
									CHANNELS 3 Xrotation Yrotation Zrotation
									JOINT LeftHandRing2
									{
										OFFSET 6.337502 0.000000 0.000000
										CHANNELS 3 Xrotation Yrotation Zrotation
										JOINT LeftHandRing3
										{
											OFFSET 5.779297 0.000000 0.000000
											CHANNELS 3 Xrotation Yrotation Zrotation
											JOINT LeftHandRing4
											{
												OFFSET 4.965698 0.000000 0.000000
												CHANNELS 3 Xrotation Yrotation Zrotation
												End Site
												{
													OFFSET 0.000000 4.965668 0.016186
												}
											}
										}
									}
								}
								JOINT LeftHandPinky1
								{
									OFFSET 20.037003 -1.530319 -10.950146
									CHANNELS 3 Xrotation Yrotation Zrotation
									JOINT LeftHandPinky2
									{
										OFFSET 5.254700 0.000000 0.000000
										CHANNELS 3 Xrotation Yrotation Zrotation
										JOINT LeftHandPinky3
										{
											OFFSET 4.810204 0.000000 0.000000
											CHANNELS 3 Xrotation Yrotation Zrotation
											JOINT LeftHandPinky4
											{
												OFFSET 3.647202 0.000000 0.000000
												CHANNELS 3 Xrotation Yrotation Zrotation
												End Site
												{
													OFFSET 0.000000 3.647186 0.011889
												}
											}
										}
									}
								}
							}
						}
					}
				}
				JOINT RightShoulder
				{
					OFFSET -15.141001 14.495407 -7.737500
					CHANNELS 3 Xrotation Yrotation Zrotation
					JOINT RightArm
					{
						OFFSET -9.308998 -2.777710 0.208500
						CHANNELS 3 Xrotation Yrotation Zrotation
						JOINT RightForeArm
						{
							OFFSET -29.972300 0.000000 0.000000
							CHANNELS 3 Xrotation Yrotation Zrotation
							JOINT RightHand
							{
								OFFSET -26.026505 0.000000 0.000000
								CHANNELS 3 Xrotation Yrotation Zrotation
								JOINT RightHandThumb1
								{
									OFFSET -12.240601 -7.148026 9.207092
									CHANNELS 3 Xrotation Yrotation Zrotation
									JOINT RightHandThumb2
									{
										OFFSET -4.138618 -2.389435 2.389433
										CHANNELS 3 Xrotation Yrotation Zrotation
										JOINT RightHandThumb3
										{
											OFFSET -2.726974 -1.574417 1.574421
											CHANNELS 3 Xrotation Yrotation Zrotation
											JOINT RightHandThumb4
											{
												OFFSET -3.941010 -2.275345 2.275343
												CHANNELS 3 Xrotation Yrotation Zrotation
												End Site
												{
													OFFSET 0.005814 5.087799 0.009927
												}
											}
										}
									}
								}
								JOINT RightHandIndex1
								{
									OFFSET -24.424698 -1.985657 5.953444
									CHANNELS 3 Xrotation Yrotation Zrotation
									JOINT RightHandIndex2
									{
										OFFSET -6.426697 0.000000 0.000000
										CHANNELS 3 Xrotation Yrotation Zrotation
										JOINT RightHandIndex3
										{
											OFFSET -5.337898 0.000000 0.000000
											CHANNELS 3 Xrotation Yrotation Zrotation
											JOINT RightHandIndex4
											{
												OFFSET -4.409401 0.000000 0.000000
												CHANNELS 3 Xrotation Yrotation Zrotation
												End Site
												{
													OFFSET 0.000000 4.409363 0.014408
												}
											}
										}
									}
								}
								JOINT RightHandMiddle1
								{
									OFFSET -23.810097 0.000000 0.000000
									CHANNELS 3 Xrotation Yrotation Zrotation
									JOINT RightHandMiddle2
									{
										OFFSET -7.176498 0.000000 0.000000
										CHANNELS 3 Xrotation Yrotation Zrotation
										JOINT RightHandMiddle3
										{
											OFFSET -6.774902 0.000000 0.000000
											CHANNELS 3 Xrotation Yrotation Zrotation
											JOINT RightHandMiddle4
											{
												OFFSET -5.403328 0.000000 0.000000
												CHANNELS 3 Xrotation Yrotation Zrotation
												End Site
												{
													OFFSET 0.027702 5.403244 0.017457
												}
											}
										}
									}
								}
								JOINT RightHandRing1
								{
									OFFSET -22.908302 -0.839325 -6.020576
									CHANNELS 3 Xrotation Yrotation Zrotation
									JOINT RightHandRing2
									{
										OFFSET -6.337502 0.000000 0.000000
										CHANNELS 3 Xrotation Yrotation Zrotation
										JOINT RightHandRing3
										{
											OFFSET -5.779297 0.000000 0.000000
											CHANNELS 3 Xrotation Yrotation Zrotation
											JOINT RightHandRing4
											{
												OFFSET -4.965698 0.000000 0.000000
												CHANNELS 3 Xrotation Yrotation Zrotation
												End Site
												{
													OFFSET 0.000000 4.965668 0.016226
												}
											}
										}
									}
								}
								JOINT RightHandPinky1
								{
									OFFSET -20.037003 -1.530334 -10.950259
									CHANNELS 3 Xrotation Yrotation Zrotation
									JOINT RightHandPinky2
									{
										OFFSET -5.254700 0.000000 0.000000
										CHANNELS 3 Xrotation Yrotation Zrotation
										JOINT RightHandPinky3
										{
											OFFSET -4.810204 0.000000 0.000000
											CHANNELS 3 Xrotation Yrotation Zrotation
											JOINT RightHandPinky4
											{
												OFFSET -3.647202 0.000000 0.000000
												CHANNELS 3 Xrotation Yrotation Zrotation
												End Site
												{
													OFFSET 0.000000 3.647186 0.011917
												}
											}
										}
									}
								}
							}
						}
					}
				}
			}
		}
	}
	JOINT LeftUpLeg
	{
		OFFSET 15.427100 -6.655098 0.678600
		CHANNELS 3 Xrotation Yrotation Zrotation
		JOINT LeftLeg
		{
			OFFSET 4.081073 -39.591068 13.024000
			CHANNELS 3 Xrotation Yrotation Zrotation
			JOINT LeftFoot
			{
				OFFSET -4.081074 -37.707932 -15.979700
				CHANNELS 3 Xrotation Yrotation Zrotation
				JOINT LeftToeBase
				{
					OFFSET 5.346399 -15.068900 20.645000
					CHANNELS 3 Xrotation Yrotation Zrotation
					JOINT LeftToe_End
					{
						OFFSET 2.754700 0.931300 11.300900
						CHANNELS 3 Xrotation Yrotation Zrotation
						End Site
						{
							OFFSET 0.000000 11.669021 0.000000
						}
					}
				}
			}
		}
	}
	JOINT RightUpLeg
	{
		OFFSET -15.569500 -6.655098 0.678600
		CHANNELS 3 Xrotation Yrotation Zrotation
		JOINT RightLeg
		{
			OFFSET -4.081825 -39.591045 13.023800
			CHANNELS 3 Xrotation Yrotation Zrotation
			JOINT RightFoot
			{
				OFFSET 4.081824 -37.707954 -15.979600
				CHANNELS 3 Xrotation Yrotation Zrotation
				JOINT RightToeBase
				{
					OFFSET -5.346400 -15.068900 20.645000
					CHANNELS 3 Xrotation Yrotation Zrotation
					JOINT RightToe_End
					{
						OFFSET -2.754700 0.931300 11.300900
						CHANNELS 3 Xrotation Yrotation Zrotation
						End Site
						{
							OFFSET 0.000000 11.669021 0.000000
						}
					}
				}
			}
		}
	}
}
MOTION
Frames: 5
Frame Time: 0.033333
2.408097 89.538040 -2.336156 38.154868 -98.477879 40.680241 4.989927 0.852119 -0.179364 5.816186 1.820994 -0.432220 5.798824 1.889311 -0.371463 1.398696 8.567450 -4.985103 -2.576267 44.431006 -3.298488 -0.000000 -0.000000 -0.000000 -5.850628 15.583053 24.334496 -49.281423 -12.548963 -33.118259 0.000005 -2.346338 -0.000009 -49.044119 -8.375164 1.927678 7.009033 -2.140903 -13.406305 1.282847 29.108149 3.730876 -1.229212 44.060676 33.697561 0.000000 0.000001 0.000001 4.419737 8.039358 -69.128249 5.721676 5.849640 -88.730714 4.016186 5.556858 -71.694221 0.000001 0.000000 -0.000000 3.463125 7.663035 -65.256037 6.355115 5.829376 -94.950373 2.145281 4.531089 -50.653369 0.000003 -0.000000 -0.000001 3.065153 7.526407 -69.046874 6.917392 5.753408 -100.518426 2.535890 4.823972 -55.440560 0.000001 -0.000000 -0.000000 1.930858 7.067634 -68.282378 6.820435 5.770483 -99.552534 2.145357 4.531154 -50.654186 -0.000000 -0.000001 -0.000001 -2.295883 -6.085112 -24.015338 -71.497532 55.831862 43.971177 -0.000027 111.460696 0.000032 -65.682022 -4.623427 -8.058518 -5.622751 -3.275323 -5.216075 23.836932 -30.232463 7.050448 -11.809297 -13.361870 -19.996067 -0.000001 -0.000001 -0.000001 1.790177 -6.291415 33.776703 1.147914 -3.063624 41.072335 1.629229 -3.540115 49.414639 0.000000 -0.000002 -0.000000 3.154719 -10.919843 21.599847 2.698681 -4.226146 65.107679 1.395748 -3.326298 45.517146 -0.000000 0.000001 0.000002 4.147544 -9.926350 33.003874 3.332230 -4.465134 73.454006 1.244836 -3.171275 42.854577 0.000001 -0.000002 -0.000003 1.548165 -8.027342 16.283485 2.950462 -4.333825 68.480426 1.490356 -3.416468 47.125805 -0.000002 -0.000003 0.000000 -0.346045 14.073388 13.165524 22.396105 -3.453402 0.069456 -16.077331 3.506578 -13.546779 -0.013865 -0.000033 -0.034296 0.000000 -0.000001 -0.000000 -11.168796 -4.140094 -9.290976 32.264472 9.169264 -8.263562 -16.503045 -1.030065 10.030766 -0.795090 0.000001 -0.000002 0.000000 0.000000 0.000000 
2.261647 89.383926 -2.294279 31.815527 -99.354281 34.385266 4.972506 0.891519 0.027681 5.617466 1.901195 -0.190546 5.596292 1.967950 -0.124851 1.137315 8.731015 -5.012604 -2.493340 47.058135 -4.804204 0.000000 0.000003 -0.000000 -6.034050 16.278740 23.590485 -48.357026 -10.647499 -33.137093 -0.000000 -4.850423 0.000012 -49.502964 -8.988201 3.761333 7.009034 -2.140906 -13.406310 1.282846 29.108145 3.730873 -1.229202 44.060679 33.697558 -0.000001 0.000001 -0.000001 4.419736 8.039356 -69.128256 5.721677 5.849639 -88.730721 4.016185 5.556859 -71.694221 -0.000001 -0.000000 0.000000 3.463127 7.663033 -65.256037 6.355116 5.829378 -94.950373 2.145278 4.531091 -50.653369 -0.000003 0.000000 0.000001 3.065152 7.526410 -69.046874 6.917394 5.753406 -100.518426 2.535890 4.823972 -55.440564 -0.000000 0.000000 0.000000 1.930860 7.067633 -68.282385 6.820434 5.770482 -99.552534 2.145355 4.531155 -50.654182 0.000002 -0.000001 0.000003 -2.227971 -6.056465 -23.321893 -68.579286 54.487240 39.972272 0.000017 113.478074 -0.000009 -65.035654 -4.192427 -6.742437 -5.622738 -3.275339 -5.216081 23.836915 -30.232449 7.050447 -11.809301 -13.361862 -19.996062 -0.000002 -0.000000 0.000001 1.790177 -6.291397 33.776703 1.147885 -3.063642 41.072332 1.629235 -3.540125 49.414605 -0.000001 0.000000 0.000001 3.154697 -10.919845 21.599848 2.698682 -4.226168 65.107692 1.395753 -3.326305 45.517146 -0.000000 0.000006 0.000002 4.147547 -9.926342 33.003884 3.332214 -4.465118 73.454033 1.244823 -3.171273 42.854574 0.000002 0.000000 -0.000000 1.548162 -8.027343 16.283499 2.950471 -4.333808 68.480447 1.490329 -3.416480 47.125805 0.000003 0.000001 -0.000001 0.141217 14.036300 13.160110 22.492979 -2.278477 -0.129661 -16.579319 3.754395 -13.973744 -0.013454 0.000023 -0.016861 0.000000 0.000000 0.000000 -12.039303 -3.593354 -9.131288 32.768833 9.054544 -8.634267 -16.543311 -0.241919 10.260987 -0.857061 0.000025 0.000001 0.000000 -0.000000 -0.000000 
2.178090 89.103630 -2.290878 27.535223 -100.423827 30.058921 5.077575 0.962024 0.139264 5.575632 2.058218 -0.087756 5.549923 2.127957 -0.012423 1.010559 8.828596 -4.815358 -2.698806 49.574565 -6.200138 -0.000000 0.000005 -0.000000 -6.413109 16.866876 24.002833 -47.790864 -7.518875 -33.992123 0.000010 -7.292042 0.000002 -49.855501 -9.889705 4.734481 7.009032 -2.140902 -13.406304 1.282846 29.108156 3.730871 -1.229209 44.060673 33.697565 -0.000002 -0.000001 -0.000002 4.419736 8.039359 -69.128249 5.721679 5.849640 -88.730714 4.016187 5.556859 -71.694214 0.000000 -0.000001 0.000002 3.463126 7.663036 -65.256030 6.355117 5.829376 -94.950373 2.145278 4.531088 -50.653369 -0.000000 -0.000002 0.000004 3.065151 7.526409 -69.046874 6.917393 5.753408 -100.518426 2.535889 4.823978 -55.440564 0.000003 -0.000001 0.000002 1.930856 7.067636 -68.282378 6.820437 5.770483 -99.552534 2.145356 4.531159 -50.654182 -0.000000 -0.000001 0.000002 -2.022849 -5.680638 -22.258980 -65.071772 52.564402 35.501244 -0.000003 115.456602 0.000015 -64.184647 -3.739466 -5.159428 -5.622718 -3.275340 -5.216082 23.836925 -30.232487 7.050435 -11.809300 -13.361848 -19.996046 -0.000004 -0.000002 -0.000002 1.790195 -6.291417 33.776696 1.147887 -3.063643 41.072315 1.629241 -3.540114 49.414626 0.000002 -0.000001 -0.000001 3.154715 -10.919828 21.599845 2.698683 -4.226176 65.107699 1.395753 -3.326304 45.517122 -0.000001 0.000001 0.000002 4.147551 -9.926343 33.003887 3.332239 -4.465122 73.454047 1.244820 -3.171262 42.854577 0.000001 -0.000001 -0.000002 1.548185 -8.027349 16.283487 2.950465 -4.333815 68.480433 1.490348 -3.416473 47.125802 0.000000 0.000001 -0.000004 0.566389 14.068854 13.291176 22.951579 -1.279838 -0.245543 -17.227653 4.017277 -14.425585 -0.015108 0.000016 -0.009621 0.000000 -0.000000 0.000000 -12.892025 -3.116600 -8.905621 33.524023 9.111874 -8.874125 -16.596439 0.420614 10.356458 -0.905541 0.000028 -0.000001 -0.000000 -0.000000 -0.000000 
2.149393 88.739166 -2.321946 24.952334 -101.467275 27.386029 5.280653 1.047408 0.131612 5.640679 2.261745 -0.154263 5.610712 2.338476 -0.064646 0.963883 8.832083 -4.418833 -3.182218 51.738451 -7.266537 -0.000000 -0.000000 0.000000 -7.013578 17.476412 25.510227 -47.435271 -3.850703 -35.719055 -0.000005 -9.386832 -0.000005 -49.868594 -11.136082 5.427364 7.009032 -2.140904 -13.406304 1.282847 29.108149 3.730876 -1.229206 44.060673 33.697565 -0.000001 -0.000000 0.000002 4.419736 8.039358 -69.128249 5.721678 5.849640 -88.730714 4.016186 5.556860 -71.694214 -0.000002 0.000001 -0.000003 3.463125 7.663033 -65.256037 6.355112 5.829376 -94.950373 2.145279 4.531090 -50.653369 0.000002 -0.000002 -0.000000 3.065151 7.526407 -69.046874 6.917393 5.753407 -100.518426 2.535889 4.823974 -55.440564 0.000001 -0.000001 0.000001 1.930857 7.067635 -68.282385 6.820432 5.770483 -99.552534 2.145358 4.531155 -50.654186 0.000003 0.000000 -0.000000 -1.733528 -5.112434 -20.722843 -60.437851 50.106838 29.658392 -0.000028 117.664748 0.000025 -63.069174 -3.118112 -3.411919 -5.622731 -3.275346 -5.216088 23.836933 -30.232453 7.050451 -11.809295 -13.361868 -19.996065 -0.000001 0.000000 -0.000000 1.790166 -6.291408 33.776723 1.147895 -3.063658 41.072335 1.629262 -3.540118 49.414619 0.000001 -0.000002 -0.000002 3.154714 -10.919843 21.599855 2.698672 -4.226199 65.107713 1.395751 -3.326297 45.517129 -0.000001 -0.000002 -0.000003 4.147550 -9.926350 33.003880 3.332239 -4.465124 73.454047 1.244808 -3.171257 42.854567 0.000001 -0.000001 0.000001 1.548162 -8.027332 16.283504 2.950461 -4.333826 68.480433 1.490361 -3.416479 47.125805 -0.000002 0.000000 -0.000000 0.887460 14.097130 13.533934 23.652952 -0.452846 -0.363523 -17.922918 4.271525 -14.848932 -0.017402 -0.000033 -0.014151 0.000000 -0.000000 -0.000000 -13.676124 -2.675064 -8.610167 34.474772 9.130488 -9.069560 -16.770484 0.977709 10.266540 -0.908997 -0.000007 0.000001 0.000000 0.000000 -0.000000 
2.156994 88.330627 -2.366245 23.322806 -102.354565 25.640108 5.507972 1.129615 0.058992 5.721453 2.467780 -0.309897 5.688289 2.552326 -0.203930 0.969720 8.844673 -4.115783 -3.592984 53.677903 -8.127343 -0.000000 -0.000000 -0.000000 -7.649721 17.977533 27.351539 -47.110414 -0.516750 -37.655403 0.000013 -10.938960 0.000003 -49.514176 -12.410013 6.452848 7.009033 -2.140903 -13.406308 1.282845 29.108149 3.730875 -1.229203 44.060676 33.697561 0.000002 -0.000002 -0.000001 4.419738 8.039360 -69.128256 5.721676 5.849640 -88.730721 4.016186 5.556860 -71.694221 0.000003 0.000000 -0.000000 3.463126 7.663036 -65.256030 6.355114 5.829376 -94.950373 2.145277 4.531092 -50.653366 -0.000003 0.000003 -0.000005 3.065153 7.526408 -69.046874 6.917392 5.753407 -100.518426 2.535890 4.823974 -55.440560 0.000004 -0.000000 0.000001 1.930858 7.067637 -68.282385 6.820433 5.770484 -99.552534 2.145356 4.531153 -50.654179 0.000001 0.000001 0.000004 -1.473834 -4.615280 -19.034554 -55.801874 47.218010 23.334745 0.000010 119.910856 -0.000009 -61.868625 -2.296698 -1.815594 -5.622745 -3.275302 -5.216063 23.836935 -30.232487 7.050443 -11.809289 -13.361845 -19.996048 -0.000001 0.000002 0.000001 1.790175 -6.291391 33.776720 1.147894 -3.063657 41.072332 1.629244 -3.540117 49.414626 0.000001 -0.000002 -0.000001 3.154705 -10.919839 21.599848 2.698706 -4.226171 65.107672 1.395738 -3.326291 45.517152 0.000000 0.000001 0.000001 4.147532 -9.926324 33.003880 3.332224 -4.465130 73.454033 1.244823 -3.171290 42.854588 -0.000000 0.000000 -0.000001 1.548176 -8.027351 16.283485 2.950469 -4.333807 68.480447 1.490350 -3.416481 47.125788 0.000000 -0.000001 -0.000003 1.025326 14.230495 13.934541 24.483006 0.168524 -0.601325 -18.579726 4.468434 -15.195195 -0.023819 0.000018 0.006564 0.000000 0.000000 -0.000000 -14.357194 -2.158788 -8.224733 35.482908 9.017977 -9.286218 -17.076504 1.365184 10.125422 -1.020269 0.000014 -0.000002 0.000000 0.000000 0.000000 
